<?xml version="1.0" standalone="no"?>
<!DOCTYPE svg PUBLIC "-//W3C//DTD SVG 20010904//EN"
 "http://www.w3.org/TR/2001/REC-SVG-20010904/DTD/svg10.dtd">
<svg version="1.0" xmlns="http://www.w3.org/2000/svg"
 width="650.000000pt" height="506.000000pt" viewBox="0 0 650.000000 506.000000"
 preserveAspectRatio="xMidYMid meet">

<g transform="translate(0.000000,506.000000) scale(0.100000,-0.100000)"
fill="#000000" stroke="none">
<path d="M2284 4628 c-9 -14 2 -21 36 -22 18 -1 30 -6 30 -15 0 -10 -9 -12
-37 -6 -21 4 -44 11 -50 17 -7 6 -28 8 -47 6 -19 -2 -34 0 -33 5 3 14 -61 16
-125 3 -56 -11 -88 -26 -52 -24 29 2 188 -24 199 -33 6 -4 53 -9 105 -10 51
-1 102 -4 112 -7 26 -7 11 -22 -22 -22 -23 0 -28 -4 -24 -17 5 -16 4 -16 -8
-3 -8 10 -46 20 -103 27 -49 6 -104 19 -122 28 -21 10 -59 16 -120 16 -75 0
-95 -3 -130 -23 l-42 -24 33 -12 c35 -13 105 -8 140 10 12 7 16 7 12 0 -3 -5
3 -17 14 -27 42 -38 23 -42 -95 -17 -85 18 -282 3 -389 -29 -16 -5 -46 -9 -66
-9 -39 0 -101 -35 -233 -133 -78 -57 -76 -67 16 -67 54 0 62 -3 94 -35 40 -40
43 -41 43 -17 0 14 2 14 9 3 5 -8 7 -20 4 -28 -6 -16 16 -45 29 -37 5 3 7 12
4 20 -4 11 -1 11 12 3 13 -8 16 -21 13 -56 -2 -31 -6 -41 -12 -32 -7 11 -9 11
-9 -3 0 -33 -15 -25 -18 10 -2 35 -18 56 -34 46 -8 -5 9 -45 24 -55 12 -7 -1
-41 -13 -33 -5 3 -9 2 -8 -3 1 -4 1 -15 0 -23 -1 -13 -2 -13 -11 0 -8 13 -10
12 -10 -3 0 -10 -11 -22 -25 -27 -14 -5 -25 -16 -25 -25 0 -8 -7 -15 -16 -15
-8 0 -12 -4 -9 -10 3 -5 -1 -10 -9 -10 -18 0 -39 -34 -28 -46 4 -5 -2 -2 -12
6 -13 9 -17 10 -12 3 4 -7 0 -23 -8 -35 -9 -12 -16 -18 -16 -12 0 5 6 16 13
24 10 12 9 12 -6 0 -10 -7 -16 -21 -14 -31 3 -13 0 -16 -11 -12 -10 4 -13 2
-8 -5 3 -6 1 -14 -5 -18 -7 -4 -9 -3 -5 4 3 6 3 13 -2 16 -4 2 -9 -4 -9 -15
-1 -10 -9 -26 -17 -35 -9 -9 -14 -19 -11 -24 3 -4 -3 -14 -12 -21 -12 -10 -14
-10 -9 -1 4 7 2 12 -7 12 -9 0 -13 -9 -12 -25 2 -15 -1 -23 -7 -19 -16 10 -28
-18 -15 -36 6 -8 1 -6 -12 5 l-24 20 12 -22 c7 -15 8 -24 1 -28 -6 -4 -8 -10
-5 -15 3 -4 -2 -13 -9 -19 -11 -9 -16 -9 -22 0 -5 8 -3 10 7 4 8 -5 11 -5 7 0
-4 4 -3 14 3 22 7 8 8 13 1 13 -9 0 -22 -21 -27 -46 -4 -16 -42 -54 -48 -47
-3 2 -4 -9 -3 -25 1 -21 -2 -28 -11 -25 -9 4 -11 0 -6 -13 4 -12 3 -15 -5 -10
-8 5 -10 1 -5 -10 4 -11 3 -15 -5 -10 -17 10 -25 -13 -10 -31 9 -12 9 -15 1
-9 -9 5 -13 0 -13 -14 0 -12 -4 -19 -9 -15 -6 3 -8 -4 -6 -16 4 -17 2 -19 -11
-8 -12 10 -13 9 -8 -5 4 -11 0 -22 -11 -30 -12 -9 -16 -20 -12 -35 6 -25 -16
-74 -29 -63 -4 4 -2 -2 6 -12 12 -16 12 -18 1 -11 -11 6 -13 3 -8 -14 4 -18 3
-20 -8 -11 -11 9 -12 7 -8 -12 4 -18 3 -20 -6 -8 -6 8 -11 10 -11 5 0 -6 5
-16 11 -22 8 -8 7 -13 -2 -18 -8 -6 -10 -4 -4 5 6 9 4 11 -4 5 -9 -5 -10 -10
-2 -18 6 -6 11 -16 11 -21 0 -6 -5 -4 -11 4 -9 12 -10 11 -6 -6 5 -26 -25 -90
-42 -86 -7 1 -10 -2 -6 -8 3 -6 10 -8 15 -5 5 3 12 0 16 -6 5 -8 3 -9 -6 -4
-10 6 -12 1 -7 -26 5 -27 -4 -15 -43 51 -98 170 -119 200 -146 210 -20 8 -30
7 -38 -1 -8 -9 -8 -10 1 -5 9 5 11 2 7 -8 -3 -9 -11 -13 -18 -9 -6 4 -5 -1 3
-10 9 -12 10 -17 2 -17 -8 0 -9 -5 -2 -19 8 -14 7 -22 -7 -32 -15 -13 -16 -12
-4 3 9 11 10 18 2 23 -6 4 -10 3 -9 -2 1 -4 0 -10 -1 -13 -7 -18 -7 -41 0 -45
13 -8 -1 -46 -14 -38 -6 3 -8 3 -4 -2 4 -4 2 -17 -4 -29 -10 -19 -10 -20 6 -7
14 12 16 12 10 -3 -3 -9 -10 -16 -15 -16 -6 0 -4 -10 2 -22 11 -21 11 -22 -4
-10 -14 12 -15 11 -8 -15 8 -30 4 -56 -8 -49 -4 3 -8 -5 -8 -17 -2 -16 0 -18
6 -8 7 10 9 6 8 -12 -1 -17 -6 -22 -13 -16 -12 10 -13 -19 0 -39 4 -7 2 -12
-5 -12 -7 0 -4 -7 7 -15 14 -11 15 -14 3 -9 -20 6 -34 -11 -18 -22 8 -5 9 -3
4 7 -5 8 -4 11 0 6 5 -4 9 -16 10 -27 1 -16 -1 -17 -12 -8 -12 10 -12 7 -2
-16 11 -23 10 -29 -2 -37 -12 -7 -12 -9 2 -9 10 0 15 -8 13 -22 -1 -13 -3 -27
-3 -31 -1 -5 -5 -6 -9 -3 -5 3 -9 -1 -9 -9 0 -8 4 -12 9 -9 4 3 8 -2 8 -11 0
-9 -4 -14 -8 -11 -5 3 -9 -1 -9 -9 0 -8 4 -12 9 -9 4 3 8 0 8 -5 0 -6 -4 -11
-10 -11 -5 0 -10 -5 -10 -11 0 -5 6 -7 12 -3 10 6 10 4 0 -8 -9 -12 -10 -18
-2 -23 7 -4 9 -18 5 -32 -3 -15 -2 -22 4 -19 10 7 9 -13 -2 -31 -10 -16 3 -44
17 -36 6 4 5 -1 -3 -10 -12 -15 -11 -20 5 -39 19 -21 19 -21 -3 -9 -12 6 -49
36 -82 67 -80 73 -131 172 -131 253 -1 81 -15 47 -34 -79 -21 -147 -28 -295
-17 -362 23 -135 129 -269 305 -385 128 -84 144 -95 129 -88 -16 7 -5 -24 14
-43 7 -8 11 -18 8 -23 -4 -5 -2 -9 3 -9 6 0 13 -7 16 -16 5 -12 3 -14 -7 -8
-7 5 -4 1 6 -8 11 -10 15 -18 11 -18 -5 0 -4 -4 1 -8 17 -12 41 -47 28 -38
-20 11 -15 1 13 -29 14 -15 23 -34 20 -42 -4 -9 -2 -11 6 -7 8 5 9 2 5 -9 -4
-10 -2 -16 5 -14 7 1 17 -8 23 -20 5 -13 14 -23 20 -23 5 0 3 -5 -5 -10 -13
-9 -13 -10 0 -10 19 0 43 -37 34 -52 -4 -6 -3 -8 3 -5 6 4 19 -3 29 -16 13
-14 14 -18 4 -12 -10 6 -9 4 2 -6 9 -9 14 -20 10 -24 -4 -5 2 -5 12 -1 16 6
17 4 6 -9 -7 -9 -9 -15 -4 -14 20 4 35 -2 29 -11 -3 -5 3 -15 15 -22 11 -7 20
-16 20 -21 0 -4 -5 -5 -12 -1 -7 4 -8 3 -4 -5 4 -6 12 -9 17 -6 5 4 9 1 9 -5
0 -6 5 -8 12 -4 7 4 8 3 4 -5 -4 -6 0 -14 8 -17 9 -3 16 -10 16 -16 0 -5 -6
-6 -12 -2 -9 5 -9 2 1 -9 15 -18 26 -23 16 -7 -3 5 -1 10 4 10 6 0 11 -6 11
-14 0 -8 5 -18 12 -22 7 -5 8 -3 3 6 -6 9 -4 11 4 6 7 -5 10 -15 7 -23 -3 -8
-2 -11 4 -8 5 3 16 -5 25 -19 9 -13 25 -26 37 -29 14 -4 19 -11 14 -22 -3 -9
-2 -13 4 -10 5 3 21 -5 34 -18 14 -14 28 -22 32 -18 4 3 4 -2 1 -12 -4 -10 -3
-16 3 -12 5 3 25 -11 44 -31 22 -23 39 -33 47 -28 9 5 10 2 6 -10 -5 -11 -3
-15 4 -10 7 4 21 -4 31 -17 11 -13 17 -17 13 -9 -4 10 -1 9 8 -3 8 -9 18 -17
22 -17 18 0 65 -43 58 -53 -5 -9 -3 -9 8 0 12 10 17 8 28 -8 7 -13 18 -18 28
-15 10 4 14 2 10 -8 -4 -11 -1 -13 10 -9 11 4 14 2 9 -5 -5 -8 -1 -10 10 -5
12 4 15 3 10 -5 -5 -8 -1 -10 10 -5 13 5 15 3 9 -8 -4 -8 -5 -11 -1 -7 4 3 19
0 33 -7 15 -8 31 -11 36 -8 6 3 7 1 4 -4 -4 -6 6 -13 24 -17 17 -3 28 -10 24
-15 -3 -6 4 -8 15 -6 11 2 20 -1 20 -6 0 -6 5 -7 10 -4 6 3 10 1 10 -5 0 -6 5
-8 10 -5 6 3 10 2 10 -3 0 -6 7 -13 16 -16 10 -4 13 -2 8 7 -4 6 3 3 16 -8 13
-11 20 -13 15 -6 -5 8 7 4 25 -9 18 -13 30 -17 25 -9 -8 12 -6 12 8 1 9 -8 22
-10 28 -6 9 5 10 2 6 -10 -5 -13 -3 -15 12 -7 13 8 23 6 37 -7 10 -10 29 -17
41 -16 13 1 34 -5 48 -12 19 -10 24 -10 18 -1 -4 7 0 7 10 -2 9 -7 14 -18 10
-24 -3 -6 -1 -7 6 -3 6 4 9 12 6 17 -7 11 24 0 44 -15 11 -8 13 -8 7 1 -5 9
-2 11 8 7 9 -3 13 -11 9 -18 -5 -8 -3 -8 8 -1 20 15 48 12 59 -5 8 -12 10 -12
10 -1 0 10 3 11 14 2 8 -7 35 -10 60 -8 34 2 45 0 42 -9 -3 -9 3 -11 22 -8 30
6 43 21 35 41 -3 7 -1 13 4 13 5 0 18 7 29 16 10 8 13 13 6 9 -6 -3 -12 -1
-12 4 0 6 7 11 15 11 8 0 15 -5 15 -12 0 -6 13 1 28 16 23 21 31 24 39 14 6
-7 9 -21 8 -30 -2 -9 4 -23 13 -30 16 -12 16 -11 2 6 -16 20 -16 22 3 45 9 11
9 13 1 8 -7 -4 -17 0 -23 7 -8 10 -9 16 -2 21 6 3 16 16 23 28 10 20 10 21 -5
9 -30 -25 -44 -8 -17 20 14 14 26 35 28 48 1 13 12 30 25 39 47 32 83 81 106
145 14 36 28 66 32 66 4 0 28 43 54 96 53 111 64 169 37 199 -31 35 -112 86
-124 79 -7 -4 -8 -3 -4 5 5 7 -3 22 -18 36 -24 22 -37 53 -18 41 5 -3 9 1 9 9
0 8 -4 12 -8 9 -4 -2 -10 2 -13 8 -4 9 -5 8 -5 -2 2 -30 -1 -41 -11 -35 -5 3
-7 13 -4 23 5 16 5 16 -6 0 -6 -10 -16 -18 -22 -18 -7 0 -7 4 0 13 9 10 3 13
-28 13 -22 0 -36 -4 -33 -9 3 -5 0 -7 -8 -5 -8 3 -13 12 -11 19 2 9 -3 8 -16
-4 -18 -17 -20 -17 -35 5 -9 13 -14 16 -11 7 3 -10 -1 -16 -11 -16 -9 0 -14 6
-11 14 3 7 2 12 -2 12 -4 -1 -10 0 -14 1 -5 1 -14 3 -20 4 -7 1 -12 8 -10 15
1 7 -2 9 -9 6 -8 -5 -8 -10 0 -18 6 -6 11 -18 11 -26 0 -10 -8 -4 -20 14 -11
17 -20 24 -20 18 0 -7 -5 -13 -11 -13 -5 0 -7 5 -3 12 4 7 3 8 -5 4 -6 -4 -14
0 -18 10 -5 14 -8 13 -20 -7 -14 -24 -14 -24 -10 -2 3 13 1 26 -4 29 -5 3 -6
11 -3 17 4 7 3 8 -2 4 -5 -5 -10 -13 -10 -18 -3 -22 -5 -23 -14 -9 -6 10 -4
21 8 35 14 16 14 17 1 7 -9 -6 -19 -8 -23 -4 -4 4 -6 1 -4 -7 2 -8 -5 -17 -14
-19 -10 -2 -18 2 -18 8 0 6 4 9 9 6 11 -7 8 21 -4 31 -4 4 -6 3 -2 -2 3 -6 -2
-19 -10 -30 -15 -20 -15 -20 -10 3 6 27 -9 20 -16 -8 -3 -11 -1 -17 4 -14 5 3
13 -5 18 -18 7 -17 10 -19 10 -5 1 9 6 17 12 17 7 0 5 -10 -5 -25 -9 -14 -12
-25 -6 -25 5 0 17 15 25 33 l14 32 -5 -30 c-3 -24 -3 -26 5 -10 l10 20 1 -20
c1 -20 2 -20 9 0 7 17 9 16 15 -10 6 -22 9 -26 17 -14 6 9 9 10 9 2 0 -7 6
-12 13 -10 6 1 11 -4 9 -11 -1 -8 2 -11 8 -7 6 3 8 11 5 16 -4 5 -1 9 5 9 7 0
10 -6 7 -14 -4 -10 0 -14 13 -11 11 2 22 -1 25 -6 4 -5 11 -6 17 -3 7 5 8 2 3
-6 -6 -9 -4 -11 5 -5 7 4 16 2 22 -6 7 -10 8 -9 4 6 -6 20 -6 20 9 1 11 -14
15 -16 15 -5 0 12 2 12 10 -1 9 -13 10 -13 10 0 0 13 1 13 10 0 8 -13 10 -13
10 -1 0 11 4 9 15 -5 13 -16 14 -16 9 -1 -4 10 -1 17 6 17 6 0 9 -4 5 -9 -3
-5 -1 -12 4 -15 5 -4 12 -2 16 4 3 5 11 10 18 10 6 0 2 -7 -9 -16 -10 -8 -13
-12 -5 -8 7 3 17 0 22 -7 7 -11 9 -11 9 -1 0 7 5 10 10 7 6 -3 10 -1 10 5 0 7
-7 9 -17 5 -15 -5 -16 -4 -5 7 11 11 16 10 26 -4 11 -15 13 -15 24 0 10 15 11
15 5 -2 -4 -13 -3 -17 6 -12 7 5 10 2 9 -6 -2 -8 5 -12 17 -11 11 1 14 0 7 -3
-6 -3 -9 -11 -5 -17 3 -7 -6 -1 -20 12 -29 26 -37 19 -11 -10 14 -16 14 -17
-2 -15 -9 2 -18 11 -20 20 -4 28 -10 28 -43 0 -18 -14 -31 -23 -29 -18 2 5 -1
10 -7 11 -5 1 -8 -6 -7 -15 2 -9 1 -14 -3 -10 -6 6 -13 31 -14 56 -1 7 -5 11
-9 8 -11 -6 -9 -36 3 -56 7 -13 6 -13 -7 -2 -10 8 -14 20 -11 29 4 11 2 14 -6
9 -6 -4 -11 -4 -10 1 3 19 -2 27 -10 14 -6 -9 -4 -24 6 -40 12 -21 12 -22 1
-9 -8 10 -19 14 -23 10 -5 -4 -6 -2 -3 3 4 6 -5 24 -18 40 -26 32 -34 23 -10
-11 12 -17 13 -21 1 -21 -8 0 -14 3 -13 6 2 19 -3 31 -11 27 -5 -3 -8 -14 -6
-24 1 -9 0 -11 -2 -4 -3 7 -10 9 -16 5 -7 -3 -4 3 6 14 26 30 21 40 -8 13 -13
-12 -21 -28 -18 -34 4 -6 0 -6 -9 1 -8 7 -19 9 -23 5 -5 -4 -5 -2 -2 4 4 7 -1
18 -10 25 -15 12 -16 12 -9 -6 6 -16 5 -17 -5 -8 -9 9 -9 15 0 26 9 11 8 17
-6 28 -15 12 -16 12 -10 -3 3 -10 2 -17 -3 -15 -5 1 -16 -7 -25 -18 -16 -20
-16 -20 -6 2 7 14 8 24 1 28 -10 6 -11 5 -14 -15 0 -5 -5 -10 -11 -10 -5 0
-11 5 -11 10 -1 6 -3 13 -4 18 -1 4 -2 10 -1 15 0 4 -3 7 -7 7 -17 0 -21 -13
-11 -34 10 -20 10 -20 -5 -2 -9 11 -12 24 -8 30 5 6 7 17 6 24 -1 6 -2 20 -3
29 -2 26 -15 5 -16 -27 -1 -16 -5 -33 -10 -37 -4 -5 -5 0 -2 9 3 9 -1 22 -9
29 -8 6 -13 18 -12 25 2 7 -1 13 -7 13 -13 1 -14 -21 -1 -38 13 -17 17 -43 5
-35 -5 3 -7 9 -4 13 2 5 -4 16 -15 26 -22 20 -28 8 -7 -15 10 -12 9 -12 -6 -1
-10 8 -16 19 -14 25 6 15 -12 48 -22 42 -5 -3 -8 6 -7 19 0 14 -3 25 -9 25 -5
0 -10 -10 -11 -22 0 -25 14 -50 25 -43 4 2 8 -2 8 -10 0 -13 -3 -13 -17 0 -9
8 -19 13 -22 10 -3 -3 -5 2 -4 12 0 10 -3 18 -9 18 -5 0 -9 -4 -7 -10 2 -5 -6
-1 -17 9 -15 14 -18 23 -11 36 7 14 29 19 92 25 46 4 90 8 98 10 8 2 42 8 75
14 95 18 332 86 431 124 277 107 495 234 798 466 65 50 122 91 125 91 7 0 -1
-80 -17 -180 -10 -56 -13 -57 -16 -5 -1 17 3 33 8 37 7 5 3 8 -8 8 -13 0 -16
-5 -12 -17 6 -17 5 -17 -8 0 -12 16 -14 16 -20 2 -7 -20 -26 -10 -26 13 0 15
2 15 10 2 7 -12 10 -12 10 -1 0 7 6 11 13 8 6 -2 21 -1 32 4 13 5 0 8 -41 8
-46 1 -65 -3 -75 -16 -12 -15 -12 -16 1 -8 24 15 40 14 40 -1 0 -21 -32 -34
-55 -22 -14 7 -13 3 5 -12 14 -13 25 -30 25 -39 0 -9 8 -15 18 -15 9 1 17 -4
17 -11 0 -7 7 -18 15 -25 19 -16 19 -1 0 27 -10 14 -12 24 -5 28 5 3 10 -2 11
-12 0 -16 1 -16 9 2 l9 20 1 -20 c1 -20 2 -20 9 -1 7 19 8 19 14 -3 3 -13 10
-20 16 -16 10 6 89 115 101 140 3 5 43 66 89 135 129 193 227 406 246 534 7
44 6 48 -11 43 -11 -3 -48 -9 -84 -12 -223 -23 -565 -86 -618 -114 -8 -5 27
-28 93 -62 l107 -54 -49 -43 c-62 -56 -227 -167 -336 -226 -99 -54 -265 -127
-287 -127 -8 1 -41 1 -72 1 -48 0 -57 3 -63 20 -3 11 -15 25 -26 30 -26 14
-24 46 6 133 l26 72 -29 26 c-21 19 -45 28 -88 33 -80 9 -92 18 -65 45 11 11
21 30 21 41 0 11 6 20 13 20 10 0 49 56 65 93 5 11 -63 37 -98 37 -22 0 -42
-11 -72 -40 -28 -28 -44 -38 -52 -30 -5 5 -29 10 -51 10 -48 0 -70 19 -105 89
-18 36 -21 56 -17 98 3 29 13 63 21 75 9 12 16 35 16 51 0 38 52 91 80 82 11
-4 29 0 42 9 25 18 74 21 83 6 3 -5 15 -10 27 -10 11 0 31 -9 45 -20 33 -25
50 -25 58 0 4 14 13 19 23 16 9 -3 36 -10 60 -15 24 -5 51 -16 61 -25 10 -9
31 -16 48 -16 35 0 43 -13 43 -73 0 -49 38 -147 57 -147 7 0 19 10 28 23 15
23 15 44 -1 149 -6 43 -4 49 24 77 17 17 40 31 52 31 12 0 50 8 85 17 60 16
64 19 76 57 8 23 34 60 64 89 27 27 49 52 48 56 -1 4 34 6 77 5 76 -1 79 -1
69 18 -16 29 -1 38 67 41 33 2 66 7 72 11 7 4 20 2 29 -3 11 -7 13 -11 5 -11
-8 0 -12 -9 -10 -22 2 -19 9 -23 33 -21 17 1 64 5 105 7 43 3 75 10 74 16 -1
5 -2 17 -2 26 -2 15 -4 15 -24 2 -24 -15 -52 -13 -42 3 3 5 -6 13 -20 19 -47
18 -86 70 -52 70 8 0 18 4 21 10 8 13 -54 50 -85 50 -22 0 -23 1 -8 16 15 15
20 15 69 -1 30 -10 76 -29 104 -41 41 -19 59 -22 109 -17 l60 6 -23 -31 c-12
-18 -26 -32 -31 -32 -11 0 -40 -29 -40 -39 0 -5 21 -16 48 -26 26 -10 52 -24
59 -32 7 -9 18 -13 26 -10 9 3 20 -4 27 -18 7 -13 18 -21 26 -18 15 6 19 35 7
47 -5 4 -9 12 -9 17 -1 5 -2 15 -3 22 -1 6 -19 23 -41 36 -34 21 -38 27 -27
40 28 34 15 121 -18 121 -9 0 -12 6 -9 15 4 10 -3 18 -20 25 -15 5 -43 26 -63
46 -28 28 -37 45 -36 70 0 23 -3 31 -13 27 -9 -3 -14 2 -14 12 0 26 -58 95
-75 88 -8 -3 -15 -1 -15 5 0 6 -3 17 -6 26 -3 9 -1 16 5 16 6 0 10 -3 10 -7
-1 -5 -1 -15 0 -23 1 -13 2 -13 11 0 6 10 10 11 10 3 0 -7 5 -13 11 -13 5 0 8
4 5 8 -3 5 2 9 10 9 10 0 11 -4 4 -11 -18 -18 -11 -30 8 -13 15 14 19 15 19 2
0 -8 -4 -12 -9 -9 -4 3 -8 -2 -8 -11 0 -9 5 -13 10 -10 6 3 10 1 10 -5 0 -6 4
-9 10 -5 5 3 7 13 4 23 -5 14 -4 14 4 2 6 -8 9 -17 6 -21 -2 -4 0 -10 6 -14 5
-3 10 -1 10 6 0 7 2 10 5 7 8 -8 -6 -38 -17 -38 -5 0 -6 5 -2 12 5 7 3 8 -6 3
-10 -6 -9 -11 6 -22 10 -8 19 -18 19 -23 0 -5 7 -15 15 -22 12 -11 12 -11 1 5
-9 11 -10 17 -3 17 13 0 38 -40 34 -54 -2 -5 5 -3 14 5 16 12 17 12 12 -3 -4
-10 2 -23 15 -35 20 -17 21 -17 8 0 -8 10 -16 33 -18 50 -2 21 0 27 6 18 7
-11 9 -11 14 0 3 8 3 -1 0 -18 -4 -24 -1 -34 10 -39 9 -3 14 -13 10 -22 -3
-10 -2 -13 4 -6 5 7 14 4 26 -8 9 -10 16 -19 15 -20 -2 -2 5 -14 15 -28 16
-23 17 -24 14 -3 -1 11 -9 28 -16 37 -9 11 -10 16 -2 16 6 0 11 -5 11 -11 0
-5 5 -7 12 -3 7 5 5 11 -7 21 -11 7 -14 13 -8 13 17 0 36 -27 24 -34 -6 -4 -7
-16 -2 -29 4 -12 6 -27 4 -34 -2 -6 1 -14 6 -18 7 -4 9 1 5 12 -5 16 -4 16 10
-1 8 -10 13 -23 10 -27 -3 -5 3 -6 12 -2 13 5 15 3 9 -7 -6 -9 -4 -11 5 -5 10
6 12 4 7 -8 -4 -10 -2 -16 5 -14 7 1 12 -5 13 -13 0 -8 6 -15 14 -15 8 0 15
-10 16 -23 1 -12 8 -28 15 -35 10 -10 10 -8 0 11 -6 13 -9 26 -7 29 3 3 12 -8
21 -25 8 -16 12 -33 8 -37 -4 -3 -2 -5 3 -3 6 1 10 -1 10 -7 0 -5 -4 -9 -8 -7
-5 1 -6 -2 -2 -8 5 -8 12 -7 23 2 14 11 15 10 8 -7 -4 -11 -4 -16 0 -12 10 9
45 -44 37 -56 -3 -6 -1 -7 5 -3 6 3 16 -2 21 -12 8 -14 20 -18 51 -17 76 4 26
-13 -90 -29 -238 -34 -521 -96 -605 -132 -86 -37 -186 -101 -193 -122 -4 -13
3 -13 308 8 141 9 806 3 750 -7 -14 -3 -31 -10 -39 -16 -12 -10 -13 -9 -6 3 7
12 6 13 -6 4 -8 -6 -43 -12 -79 -13 -36 -2 -86 -7 -112 -11 -67 -13 -209 -71
-205 -84 2 -6 56 -24 121 -39 l117 -28 48 30 c70 45 70 38 1 -20 -34 -28 -59
-53 -57 -55 4 -4 145 32 246 63 9 2 6 -2 -6 -9 -12 -7 -22 -16 -22 -21 0 -4
-1 -11 -4 -15 -2 -4 -2 -1 -1 6 2 6 -1 12 -6 12 -6 0 -10 -6 -11 -12 0 -7 -2
-21 -4 -31 -2 -9 1 -15 6 -11 5 3 9 -2 9 -11 0 -10 -5 -13 -12 -9 -10 6 -10 4
-2 -7 6 -8 10 -26 9 -41 -1 -16 2 -25 8 -21 6 4 8 0 4 -10 -3 -9 -2 -19 3 -22
6 -4 10 -11 10 -17 0 -6 -10 -3 -22 8 -22 19 -22 19 -8 0 8 -11 15 -26 15 -35
0 -9 3 -20 6 -26 3 -5 5 -23 4 -38 -2 -28 24 -54 40 -39 5 4 4 0 -1 -8 -5 -8
-9 -28 -10 -45 0 -16 -4 -38 -8 -48 -7 -15 -11 -15 -25 -5 -14 11 -14 11 -4
-3 7 -9 9 -20 5 -25 -4 -5 6 2 23 16 16 14 24 18 17 9 -9 -12 -9 -19 1 -29 10
-12 9 -12 -5 -1 -21 15 -24 2 -5 -18 7 -9 8 -11 1 -8 -14 8 -13 -51 1 -74 7
-11 6 -12 -7 -2 -13 11 -15 7 -13 -31 3 -61 -2 -66 -55 -56 -95 19 -264 22
-495 10 -260 -13 -260 -13 -293 -75 -9 -16 -15 -34 -14 -38 1 -5 -2 -6 -7 -3
-17 11 -19 -19 -2 -39 16 -19 15 -20 -5 -3 -15 14 -23 15 -32 6 -9 -9 -7 -18
11 -37 l22 -26 -27 24 c-24 21 -28 22 -34 8 -3 -9 -2 -22 2 -29 6 -11 4 -11
-7 0 -11 10 -11 16 -1 32 6 10 8 21 3 24 -5 3 -15 -9 -22 -26 -10 -24 -10 -33
-1 -36 7 -2 12 -10 12 -17 0 -7 32 -25 70 -40 83 -32 114 -67 123 -137 6 -44
4 -48 -23 -68 -42 -30 -54 -55 -38 -79 7 -11 21 -22 31 -25 18 -4 18 -3 -2 15
-42 39 -14 75 34 43 25 -16 25 -17 8 -37 -18 -20 -18 -20 8 -3 25 15 27 15 60
-7 19 -12 35 -32 37 -44 2 -14 8 -20 18 -16 8 3 20 1 27 -5 6 -6 28 -12 47
-14 26 -2 40 -11 55 -35 11 -18 33 -37 48 -42 32 -12 31 -29 -5 -88 -20 -33
-117 -121 -155 -142 -13 -6 -23 -18 -23 -27 0 -31 -40 -92 -104 -158 -52 -54
-73 -68 -103 -73 -39 -5 -100 -24 -166 -51 -26 -11 -41 -25 -49 -47 -8 -24
-27 -40 -72 -65 -34 -18 -88 -51 -120 -73 -61 -40 -75 -42 -153 -21 -21 6 -22
4 -13 -24 6 -21 5 -34 -3 -40 -29 -21 -68 -30 -118 -28 -43 2 -57 -1 -70 -17
-13 -16 -23 -18 -62 -12 -26 4 -45 11 -42 15 3 5 1 11 -5 15 -6 4 -7 11 -4 17
4 7 2 8 -5 4 -9 -6 -9 -11 0 -22 6 -8 8 -14 4 -14 -4 0 -2 -6 4 -13 6 -8 8
-17 4 -20 -3 -4 5 -7 18 -7 22 -1 22 -2 -7 -14 -18 -8 -34 -19 -38 -24 -4 -7
-17 -7 -36 -2 -22 6 -34 5 -44 -6 -19 -18 -24 -8 -20 36 2 24 0 30 -6 20 -9
-14 -14 -7 -11 13 1 5 -3 6 -9 2 -8 -5 -7 -12 2 -22 7 -9 13 -23 13 -32 0 -23
15 -42 26 -36 5 4 9 1 9 -5 0 -6 5 -8 11 -4 7 4 10 1 7 -7 -3 -8 -15 -16 -29
-17 -37 -5 -50 -24 -14 -21 17 2 36 -1 44 -5 10 -7 12 -5 6 4 -6 10 -4 12 7 7
9 -3 19 -3 22 0 3 4 22 7 42 9 19 1 38 5 41 8 4 3 12 1 20 -5 7 -6 13 -7 13
-2 0 5 15 10 33 11 17 0 41 3 52 5 11 2 26 0 33 -6 9 -7 11 -5 5 9 -6 17 -5
18 12 4 10 -8 16 -10 12 -4 -4 7 3 14 18 16 22 5 24 3 13 -11 -9 -12 -7 -11 8
2 19 15 33 21 89 31 6 1 16 6 24 10 9 6 12 5 8 0 -3 -6 5 -10 18 -10 13 0 21
4 19 8 -3 5 -10 5 -16 2 -6 -4 -8 -2 -4 4 3 6 15 9 26 7 11 -2 20 1 20 7 0 5
7 8 15 4 8 -3 15 0 15 6 0 6 3 8 7 5 3 -4 17 0 31 9 17 11 22 12 17 3 -5 -8 2
-5 15 6 13 11 20 14 15 6 -5 -9 1 -7 19 4 14 10 26 13 26 9 0 -5 4 -4 8 3 4 6
16 13 27 15 11 1 26 10 33 18 12 13 13 13 6 0 -5 -10 1 -8 16 5 15 13 21 15
16 5 -5 -9 -2 -8 7 2 8 10 17 15 20 11 4 -3 7 -1 7 6 0 7 4 10 9 6 5 -3 12 -1
16 4 3 5 19 16 35 25 17 8 28 11 26 7 -3 -4 1 -8 8 -8 9 0 12 7 8 15 -4 11 -1
14 12 9 9 -4 15 -3 12 2 -3 4 7 14 22 22 15 8 30 18 34 24 5 6 8 5 8 -2 0 -7
13 1 30 19 17 17 30 26 30 19 0 -7 12 1 26 16 15 15 23 21 18 13 -5 -9 2 -3
16 12 14 16 31 28 38 28 6 0 12 5 12 10 0 6 7 10 15 10 8 0 15 8 15 18 0 13 2
14 9 3 7 -11 10 -9 16 8 3 12 11 19 16 16 5 -4 9 1 9 9 0 10 6 13 17 9 11 -4
14 -3 9 5 -4 7 -1 12 8 12 8 0 20 9 26 20 6 11 18 20 28 20 15 0 15 2 2 10
-12 8 -12 10 -1 10 7 0 30 19 51 41 22 24 43 39 49 35 6 -4 11 -4 10 1 -4 16
25 63 39 63 7 0 16 9 19 20 3 11 13 20 22 20 14 0 14 2 1 10 -13 9 -13 10 0
10 8 0 20 10 25 22 6 13 16 22 23 21 6 -2 9 4 6 12 -4 9 2 18 17 24 13 5 18
10 10 10 -8 1 1 14 20 32 19 18 25 26 15 18 -19 -14 -19 -13 -1 14 10 16 24
26 31 23 8 -3 13 -2 12 2 -1 4 4 18 11 31 11 19 11 22 -1 16 -7 -3 -5 0 5 8
10 9 19 19 20 24 1 4 5 7 9 6 4 -2 4 5 1 14 -4 11 -3 14 5 9 8 -5 10 -1 5 10
-5 13 -3 15 8 9 12 -8 12 -6 0 8 -12 15 -12 17 3 11 12 -5 15 -2 9 12 -4 11
-3 15 4 11 6 -4 14 0 17 9 4 10 2 13 -7 9 -6 -4 -4 0 5 8 10 8 15 16 13 19 -3
3 4 13 15 23 11 10 20 23 20 28 0 6 -7 2 -16 -9 -23 -29 -5 6 24 45 14 19 20
31 14 27 -8 -5 -10 -2 -6 8 3 9 10 13 15 10 5 -3 6 1 3 9 -3 8 -1 18 4 21 6 3
8 22 5 42 -7 50 6 184 18 184 11 0 11 -47 0 -75 -5 -11 -5 -25 -1 -30 5 -6 10
-26 12 -45 l3 -35 43 64 c26 39 50 91 62 135 20 73 60 303 60 344 l0 23 -24
-23 c-14 -13 -39 -54 -57 -93 -18 -38 -36 -72 -39 -75 -3 -3 -6 -31 -7 -62 -2
-57 -25 -118 -44 -118 -6 0 -6 6 1 19 5 11 13 37 16 58 3 21 11 44 17 52 10
12 9 13 -2 6 -10 -6 -12 -4 -6 6 5 7 10 25 12 39 1 14 5 48 9 75 14 96 10 481
-5 509 -2 5 -5 25 -6 43 -1 19 -7 38 -14 42 -14 9 89 41 229 71 58 13 124 36
170 59 67 35 84 39 165 42 158 7 746 4 867 -3 125 -8 144 -3 112 33 -40 44
-201 119 -256 119 -10 0 -39 -13 -65 -30 -66 -42 -74 -37 -19 11 26 23 53 54
61 70 17 32 20 106 5 129 -7 11 -10 7 -10 -18 0 -44 -14 -68 -50 -87 -29 -15
-91 -20 -103 -9 -3 3 -1 14 6 25 6 10 9 21 5 24 -3 4 -57 -18 -119 -48 -104
-49 -303 -127 -325 -127 -5 0 63 38 151 83 209 108 304 163 448 259 207 137
357 266 418 361 68 104 62 150 -22 186 -88 38 -130 38 -212 1 -75 -35 -169
-51 -181 -31 -8 12 104 70 139 72 11 1 2 5 -20 10 -65 13 -186 10 -250 -6
-134 -35 -294 -154 -443 -330 -51 -61 -140 -160 -197 -221 -58 -62 -105 -114
-105 -116 0 -3 35 -8 78 -12 43 -3 98 -12 123 -19 40 -12 30 -13 -117 -12
l-160 0 -50 -50 c-27 -28 -77 -65 -110 -83 -75 -39 -93 -42 -39 -6 128 85 178
182 145 284 -7 23 -8 23 -9 -9 -2 -72 -82 -139 -152 -129 -21 3 -24 8 -24 43
0 36 -3 40 -28 43 -16 2 -34 -1 -41 -7 -19 -16 -26 -3 -26 46 0 53 36 97 95
118 l40 14 -36 1 c-71 0 -140 -36 -237 -127 -46 -43 -52 -46 -52 -27 0 13 -7
27 -15 31 -8 5 -16 18 -18 30 -2 13 -7 26 -12 30 -4 5 -5 2 -1 -4 14 -25 -2
-13 -20 15 -17 26 -17 27 1 12 18 -15 18 -14 1 13 -10 15 -23 27 -28 27 -5 0
-7 4 -4 9 4 5 0 12 -6 14 -8 3 -6 6 5 6 9 1 17 8 17 16 0 21 18 19 72 -10 55
-29 62 -30 54 -10 -3 9 0 15 9 15 20 0 20 2 -17 62 -83 137 -154 230 -285 374
-61 67 -102 102 -160 136 -86 50 -190 100 -213 102 -29 3 -141 39 -136 43 2 3
32 -3 67 -11 34 -9 64 -15 66 -12 5 5 -184 96 -267 129 -106 41 -282 96 -330
102 -25 4 -63 12 -85 19 -49 16 -175 35 -273 41 -58 3 -74 1 -79 -11 -4 -11
-14 -13 -39 -8 -45 8 -44 1 9 -57 14 -16 14 -19 2 -19 -24 0 -17 -28 8 -33
l22 -4 -23 -2 c-15 -1 -21 -5 -16 -13 4 -7 3 -8 -5 -4 -6 4 -9 11 -7 15 3 4
-4 13 -16 20 -11 7 -17 8 -14 3 3 -6 -12 -6 -40 0 -25 6 -66 7 -91 3 -36 -5
-43 -10 -38 -23 3 -9 3 -13 -1 -9 -4 4 -14 1 -22 -6 -9 -6 -13 -7 -10 -2 4 6
3 17 -3 25 -6 11 -9 12 -9 2 0 -7 -4 -10 -10 -7 -5 3 -10 0 -10 -7 0 -10 -3
-9 -10 2 -6 9 -5 19 2 28 13 15 -3 31 -32 32 -8 1 -4 6 9 11 14 5 27 6 30 2
10 -13 41 -15 41 -3 0 7 8 9 23 4 12 -4 33 -8 46 -10 13 -1 27 -7 30 -12 11
-17 71 -25 86 -12 22 18 18 40 -6 40 -14 0 -19 5 -16 14 6 16 -11 35 -39 41
-11 2 -37 9 -59 14 -58 15 -85 14 -79 -3 4 -11 0 -13 -18 -10 -22 5 -22 5 -4
-10 13 -11 23 -13 30 -6 15 15 48 12 75 -9 20 -15 21 -18 5 -16 -11 1 -32 6
-48 10 -20 5 -31 4 -36 -6 -7 -10 -14 -10 -35 -1 -14 7 -39 12 -55 12 -17 0
-30 5 -30 10 0 6 -12 10 -27 11 -28 0 -28 1 -5 11 12 6 22 15 22 20 0 12 -109
7 -116 -4z m706 -48 c13 -8 13 -10 -2 -10 -9 0 -20 5 -23 10 -8 13 5 13 25 0z
m-315 -10 c13 -6 15 -9 5 -9 -8 0 -22 4 -30 9 -18 12 -2 12 25 0z m200 -20
c10 -16 -12 -12 -29 6 -9 8 -16 18 -16 20 0 7 38 -15 45 -26z m101 -39 c24 4
38 -1 27 -12 -12 -12 -113 17 -113 32 0 5 17 2 39 -7 21 -8 42 -14 47 -13z
m59 -11 c3 -5 1 -10 -4 -10 -6 0 -11 5 -11 10 0 6 2 10 4 10 3 0 8 -4 11 -10z
m-147 -12 c16 -16 15 -29 -2 -22 -16 6 -30 34 -18 34 5 0 13 -5 20 -12z m552
-102 c19 2 40 4 45 5 6 1 30 -4 55 -10 25 -6 71 -16 103 -22 50 -9 55 -12 42
-25 -13 -13 -22 -13 -81 6 -79 24 -71 23 -78 5 -3 -8 -2 -14 2 -13 15 3 42
-15 42 -29 0 -8 13 -19 30 -24 16 -6 28 -14 25 -19 -5 -8 47 -32 110 -51 22
-6 52 -18 66 -25 14 -7 29 -11 33 -7 3 3 6 1 6 -6 0 -7 5 -9 10 -6 6 3 10 1
10 -4 0 -6 7 -11 15 -11 8 0 24 -10 36 -22 12 -13 18 -16 14 -8 -12 24 59 -52
79 -84 13 -20 15 -31 7 -39 -10 -10 -11 -9 -11 8 1 11 -25 33 -32 28 -5 -2 -8
3 -8 12 0 9 -4 13 -10 10 -5 -3 -10 -1 -10 5 0 6 -5 8 -12 4 -6 -4 -8 -3 -5 3
4 6 0 16 -8 23 -13 10 -15 10 -12 -1 2 -8 2 -11 0 -6 -3 4 -9 5 -14 2 -5 -4
-6 0 -3 8 3 8 -6 21 -22 32 -17 11 -24 12 -19 4 5 -8 -3 -2 -18 14 -26 27 -44
36 -31 15 5 -7 3 -8 -5 -4 -7 5 -10 14 -8 20 3 7 -1 13 -9 13 -7 0 -10 -5 -7
-11 4 -6 0 -5 -9 1 -8 7 -19 9 -23 5 -5 -4 -5 -2 -2 4 4 7 -9 16 -32 22 -21 7
-55 23 -75 37 -20 13 -36 22 -36 20 0 -3 -9 3 -19 12 -11 9 -18 20 -15 25 3 4
-3 5 -12 1 -12 -4 -15 -3 -10 5 4 7 2 12 -3 12 -6 0 -11 -6 -11 -12 0 -7 -7
-2 -17 11 -15 22 -17 23 -29 6 -12 -16 -14 -15 -20 9 -6 25 -7 25 -20 9 -12
-15 -13 -16 -8 -1 4 12 1 16 -13 14 -10 -2 -23 1 -30 6 -7 5 -17 7 -23 3 -7
-4 -7 1 1 13 9 15 18 18 29 12 8 -5 31 -6 50 -4z m280 -76 c8 -5 11 -10 5 -10
-5 0 -17 5 -25 10 -8 5 -10 10 -5 10 6 0 17 -5 25 -10z m-943 -167 c0 -47 3
-58 12 -44 5 8 7 20 4 27 -2 6 0 15 6 19 7 4 8 0 4 -11 -4 -12 -3 -15 6 -10 6
4 11 4 10 -1 -1 -4 -1 -15 1 -23 1 -11 4 -9 9 5 5 11 5 25 0 31 -5 7 -3 11 5
11 10 0 13 -9 10 -25 -7 -39 -16 -47 -29 -28 -11 15 -13 15 -19 1 -3 -9 -10
-13 -16 -10 -5 3 -10 1 -10 -5 0 -7 7 -10 15 -6 17 6 20 -5 5 -20 -7 -7 -6
-11 4 -11 8 0 15 3 14 6 -2 20 3 31 12 26 6 -4 8 -10 5 -15 -3 -5 0 -12 6 -16
7 -4 9 -3 6 3 -4 6 0 16 9 23 13 12 14 10 10 -15 -3 -15 -2 -24 2 -20 7 6 8
10 11 36 0 5 5 8 10 5 11 -7 9 -25 -4 -46 -8 -13 -7 -13 8 -1 9 7 15 17 12 21
-3 4 2 13 11 20 13 12 14 10 10 -15 -3 -15 -2 -24 2 -20 7 6 8 10 11 36 0 5 5
8 10 5 11 -7 9 -24 -3 -46 -7 -12 -7 -13 5 -2 8 7 14 17 14 23 0 5 5 8 10 7 6
-2 9 -7 7 -13 -2 -5 0 -7 4 -3 4 4 14 2 23 -4 9 -7 5 0 -8 15 -31 34 -16 35
20 1 20 -19 29 -22 34 -13 5 7 4 10 -3 5 -6 -3 -13 -2 -16 3 -9 14 20 21 33 8
7 -7 7 -14 0 -23 -7 -8 -7 -14 1 -19 6 -4 10 -3 9 2 -1 4 0 11 1 16 3 9 7 24
9 35 1 4 5 0 11 -8 6 -9 5 -20 -3 -30 -10 -13 -10 -13 4 -3 12 10 18 10 27 1
7 -7 12 -8 12 -4 0 5 8 2 18 -5 15 -12 16 -12 5 2 -13 16 -8 29 9 29 5 0 7 -4
3 -9 -3 -5 0 -13 6 -17 7 -4 9 -3 5 4 -3 6 -2 13 4 17 5 3 10 12 10 18 0 8 -3
8 -8 2 -4 -5 -15 -11 -26 -12 -26 -2 -6 16 24 21 17 2 30 -3 42 -17 13 -17 19
-19 31 -9 10 8 17 9 21 3 7 -10 -28 -34 -36 -25 -3 2 -11 -4 -19 -13 -12 -16
-12 -17 2 -6 12 10 18 10 29 0 10 -9 11 -9 6 1 -6 11 4 16 26 13 3 0 5 13 3
30 -2 16 0 27 4 24 13 -8 19 -64 7 -68 -8 -3 -7 -12 2 -27 13 -22 13 -22 -17
-18 -25 4 -28 2 -21 -11 4 -9 20 -26 34 -38 43 -38 32 -68 -29 -78 -58 -10
-71 -15 -58 -23 6 -4 13 -23 14 -42 4 -32 1 -35 -23 -38 -34 -4 -81 52 -88
105 -5 35 -10 41 -65 69 -33 17 -97 52 -143 77 -45 26 -93 47 -107 47 -16 0
-25 6 -25 15 0 8 -9 24 -20 35 -12 12 -17 26 -13 36 5 14 8 13 20 -7 13 -24
13 -23 9 8 -2 17 -1 34 2 37 8 9 9 8 9 -11z m105 -15 c-6 -6 -8 -17 -5 -25 4
-11 10 -8 19 13 l13 29 -6 -30 c-5 -29 -5 -29 10 -10 8 11 13 24 10 30 -4 6
-2 6 3 2 9 -8 10 -12 13 -39 1 -9 4 -9 10 2 6 8 8 17 5 21 -2 4 0 10 5 14 6 3
8 -5 5 -20 -3 -18 -1 -23 10 -19 8 3 12 12 10 19 -7 17 12 29 22 14 4 -8 3 -9
-4 -5 -7 4 -12 3 -12 -3 0 -19 19 -21 30 -4 10 16 11 16 6 1 -3 -10 -1 -20 4
-23 13 -8 18 18 8 40 -8 17 -7 18 4 5 7 -9 23 -15 36 -14 12 1 20 -1 18 -4
-12 -12 27 -34 54 -30 16 2 27 1 25 -3 -7 -11 -65 -16 -65 -6 0 6 -3 8 -6 4
-3 -3 -1 -14 5 -24 6 -10 11 -12 11 -5 0 6 4 12 9 12 10 0 9 -25 -1 -36 -8 -7
-40 40 -36 52 2 5 -1 9 -7 9 -5 0 -9 -5 -7 -12 4 -18 -17 -26 -24 -9 -5 14 -8
14 -21 0 -14 -13 -17 -13 -34 2 -15 13 -22 14 -33 5 -9 -7 -17 -8 -20 -2 -7
10 -24 10 -43 -2 -6 -4 -14 -3 -17 2 -7 11 -25 9 -45 -4 -8 -5 -5 6 8 23 12
18 20 32 16 32 -3 0 -3 5 0 10 4 6 11 7 17 4 6 -4 6 -10 0 -16z m-159 -18 c-3
-12 -8 -19 -11 -16 -5 6 5 36 12 36 2 0 2 -9 -1 -20z m414 14 c-3 -3 -12 -4
-19 -1 -8 3 -5 6 6 6 11 1 17 -2 13 -5z m103 -34 c13 -9 13 -10 0 -9 -8 0 -24
4 -35 9 l-20 9 20 0 c11 0 27 -4 35 -9z m120 -29 c0 -4 -11 -7 -25 -7 -18 0
-22 3 -14 12 10 13 39 9 39 -5z m64 -26 c-7 -18 -20 -19 -30 -3 -4 6 -3 8 4 4
6 -3 13 -2 17 4 9 15 15 12 9 -5z m79 -48 c-4 -6 0 -8 11 -4 12 5 19 0 26 -18
11 -28 22 -34 14 -7 -5 14 -4 15 5 2 6 -8 11 -12 11 -7 0 12 60 -23 67 -39 3
-7 9 -14 15 -14 5 0 6 5 2 12 -4 7 -3 8 5 4 9 -6 41 -69 41 -81 0 -1 -17 -5
-37 -8 -31 -5 -42 -2 -64 19 -18 17 -25 32 -22 49 4 17 -1 26 -19 35 -35 18
-78 62 -72 72 3 5 0 9 -7 7 -28 -3 -49 1 -49 11 0 5 8 6 18 3 15 -6 16 -5 2
12 -9 11 0 8 22 -9 21 -16 35 -33 31 -39z m542 -17 c13 -6 15 -9 5 -9 -8 0
-22 4 -30 9 -18 12 -2 12 25 0z m-300 -70 c-3 -5 -12 -10 -18 -10 -7 0 -6 4 3
10 19 12 23 12 15 0z m380 -10 c3 -6 -1 -7 -9 -4 -18 7 -21 14 -7 14 6 0 13
-4 16 -10z m-255 -120 c0 21 29 -21 30 -43 0 -14 -7 -11 -34 15 -18 18 -31 37
-28 42 3 5 11 1 19 -9 9 -13 13 -14 13 -5z m37 13 c-4 -3 -1 -13 6 -22 11 -14
10 -14 -5 -2 -16 12 -16 31 -1 31 4 0 3 -3 0 -7z m-1009 -59 c12 7 66 -50 58
-63 -4 -7 -15 -7 -30 -1 -13 5 -26 6 -29 4 -9 -10 -47 21 -42 34 3 9 -6 11
-38 6 -23 -4 -44 -7 -47 -7 -3 -1 -16 3 -30 8 l-25 9 25 7 c14 4 44 7 67 8 23
1 45 6 49 13 5 8 11 6 20 -6 7 -10 17 -15 22 -12z m1059 -17 c-6 -16 14 -34
35 -31 11 1 14 -4 11 -17 -7 -24 -7 -24 -37 6 -21 21 -27 55 -9 55 3 0 3 -6 0
-13z m-1033 -83 c22 -8 10 -24 -18 -24 -19 0 -26 -8 -35 -44 -13 -53 -33 -73
-51 -52 -9 12 -6 25 17 65 24 44 36 55 65 60 3 0 13 -2 22 -5z m104 -24 c18
-11 38 -20 45 -20 7 0 18 -9 25 -20 10 -16 10 -20 -1 -20 -7 0 -18 5 -23 10
-7 7 -15 2 -24 -15 -15 -27 -40 -34 -40 -10 0 8 -5 15 -11 15 -8 0 -7 5 1 15
10 13 10 19 -4 33 -32 36 -17 42 32 12z m1051 6 c6 -7 8 -22 4 -32 -6 -16 -5
-17 9 -6 14 11 16 10 11 -7 -7 -27 -14 -26 -37 6 -15 20 -17 28 -7 31 11 4 11
6 0 13 -8 5 -9 9 -3 9 6 0 17 -6 23 -14z m-2529 -15 c0 -6 -4 -12 -8 -15 -5
-3 -9 1 -9 9 0 8 4 15 9 15 4 0 8 -4 8 -9z m2573 -41 c-6 -21 12 -50 30 -50 5
0 3 8 -6 18 -14 15 -14 19 -3 19 8 0 15 -3 14 -6 0 -3 1 -9 2 -13 1 -5 4 -17
5 -28 4 -34 5 -35 16 -20 9 13 10 12 5 -2 -6 -20 10 -34 18 -16 3 7 3 2 -1
-12 -5 -23 -5 -24 13 -10 10 8 16 10 11 5 -9 -11 23 -46 36 -38 6 3 7 1 3 -6
-6 -9 -11 -9 -22 0 -18 15 -18 0 0 -24 11 -14 15 -15 20 -5 3 7 3 3 0 -9 -4
-18 -1 -21 17 -18 12 2 19 2 15 -2 -3 -4 2 -16 11 -27 18 -21 18 -21 -4 -2
-13 11 -23 14 -23 9 0 -6 7 -16 15 -23 8 -7 15 -18 15 -24 0 -6 -16 12 -35 39
-19 28 -44 65 -57 83 -45 66 -70 92 -80 85 -7 -3 -8 -1 -4 5 4 7 -2 21 -13 33
-15 17 -18 26 -10 40 13 25 18 24 12 -1z m-2563 -37 c0 -13 4 -23 8 -23 4 0
26 -17 49 -37 38 -35 42 -43 49 -103 3 -35 16 -82 27 -104 15 -29 18 -41 9
-44 -8 -2 1 -19 23 -44 25 -27 34 -45 30 -59 -6 -18 49 -109 66 -109 18 0 18
19 0 42 -11 13 -22 44 -26 68 -4 24 -11 52 -16 62 -5 9 -9 28 -9 41 0 13 -8
35 -18 48 -39 50 -34 101 6 73 15 -10 22 -25 22 -49 0 -33 28 -95 43 -95 4 0
7 -6 7 -13 0 -8 9 -22 20 -32 12 -11 18 -25 15 -36 -4 -10 2 -25 13 -36 42
-39 84 -165 62 -187 -20 -20 -9 -48 35 -89 61 -58 111 -97 122 -97 5 0 18 -8
29 -19 49 -45 105 -72 135 -66 41 9 73 -14 98 -69 12 -28 31 -50 50 -60 17 -9
47 -27 67 -41 20 -14 44 -25 53 -25 20 -1 61 -84 61 -122 0 -21 5 -28 20 -28
12 0 29 -15 45 -40 14 -22 31 -40 39 -40 14 0 42 -28 35 -35 -13 -12 -333 -97
-454 -119 -198 -37 -303 -46 -520 -45 -182 1 -225 5 -122 11 26 2 47 8 46 13
0 6 -5 9 -9 8 -5 -2 -7 6 -5 17 2 10 -3 24 -11 31 -10 8 -11 15 -4 24 7 9 6
16 -5 25 -9 7 -13 21 -10 31 5 14 1 19 -13 19 -46 0 -358 172 -347 191 4 5 0
6 -7 4 -25 -10 -59 39 -60 84 0 22 -4 41 -9 41 -5 0 -6 -8 -3 -17 5 -16 4 -16
-6 -3 -10 13 -11 12 -6 -3 3 -10 2 -16 -4 -12 -6 3 -7 -1 -3 -10 5 -13 7 -14
14 -3 6 9 9 7 9 -10 0 -19 -2 -21 -19 -10 -11 7 -18 15 -15 19 5 9 -21 31 -29
23 -3 -3 -4 1 -3 10 1 8 5 18 9 22 3 4 2 16 -4 28 -9 20 -9 20 4 3 9 -11 18
-14 21 -8 4 5 3 12 -2 15 -5 3 -8 32 -7 66 1 34 -2 63 -7 66 -5 3 -5 11 -1 17
4 7 8 20 8 30 0 9 4 17 9 16 5 0 13 5 17 13 5 8 9 9 9 2 0 -6 -6 -17 -13 -23
-15 -12 -17 -61 -2 -61 5 0 10 10 10 22 1 13 5 31 9 41 12 25 -1 52 -17 38
-10 -8 -14 -7 -14 4 0 7 5 13 11 12 6 -1 10 8 10 20 -1 13 2 20 7 18 4 -3 6
-14 4 -25 -2 -11 0 -22 6 -25 15 -10 10 52 -6 65 -8 7 -15 18 -14 24 0 7 2 6
6 -2 2 -6 10 -9 15 -6 6 4 8 2 4 -4 -3 -6 -2 -13 4 -17 6 -4 10 5 10 20 0 14
-3 24 -7 22 -5 -3 -8 14 -8 38 0 24 5 43 10 42 6 -1 9 9 8 23 -2 22 -2 23 6 5
5 -11 7 -23 5 -27 -3 -4 0 -9 6 -13 5 -3 10 -2 10 4 0 5 3 17 7 27 4 12 3 15
-6 10 -6 -4 -11 -4 -10 1 1 4 0 10 -1 13 -8 21 -7 39 3 33 6 -4 8 -1 5 8 -3 8
1 26 9 40 10 16 12 18 8 4 -11 -32 -13 -85 -3 -91 4 -3 9 4 9 15 4 58 6 66 17
63 7 -1 12 5 12 14 0 8 -4 12 -10 9 -6 -4 -7 1 -3 11 4 10 2 15 -4 11 -5 -3
-10 0 -10 8 0 8 5 11 10 8 5 -3 7 0 5 8 -3 8 3 24 13 37 10 13 16 32 14 43 -2
11 0 17 6 14 5 -4 7 -10 4 -15 -3 -4 3 -14 12 -21 14 -12 15 -11 9 8 -4 12 -2
24 4 28 8 5 6 14 -7 28 -9 12 -11 16 -3 10 10 -9 17 -10 27 -1 11 9 10 14 -4
32 -17 19 -17 20 0 7 9 -7 17 -10 17 -6 0 4 7 2 15 -5 8 -7 15 -8 15 -2 0 15
-26 33 -36 24 -5 -4 1 5 14 19 12 14 19 29 15 33 -5 4 -3 7 2 6 22 -5 27 1 15
16 -11 12 -11 15 1 12 8 -2 13 3 11 10 -1 6 3 11 10 10 7 -2 12 2 13 7 0 15
35 61 35 48 0 -7 -5 -15 -10 -18 -6 -4 -8 -10 -5 -14 2 -5 -7 -18 -20 -31 -15
-15 -21 -27 -16 -34 5 -6 12 -22 15 -36 6 -20 5 -22 -4 -10 -9 12 -10 10 -5
-10 5 -20 4 -22 -5 -10 -9 12 -10 10 -5 -10 5 -20 4 -22 -5 -10 -9 12 -10 10
-5 -10 5 -20 4 -22 -5 -10 -10 13 -11 12 -6 -3 4 -12 2 -16 -6 -11 -6 4 -8 3
-5 -4 4 -5 4 -18 1 -27 -6 -13 -9 -14 -16 -3 -8 10 -9 9 -5 -3 3 -9 1 -22 -4
-30 -7 -12 -9 -12 -9 1 0 13 -1 13 -10 0 -5 -8 -7 -26 -4 -40 3 -20 3 -21 -4
-6 -8 18 -9 18 -15 3 -4 -10 -1 -17 6 -18 9 0 9 -2 0 -5 -7 -3 -9 -13 -6 -22
4 -15 3 -15 -6 -2 -9 12 -10 9 -6 -15 4 -25 4 -26 -5 -10 -8 17 -9 14 -6 -13
3 -18 0 -30 -5 -26 -5 3 -9 2 -8 -3 1 -4 0 -19 -1 -33 l-2 -25 -9 25 c-7 21
-8 19 -4 -10 4 -26 2 -31 -5 -20 -8 11 -9 8 -5 -15 4 -25 4 -27 -5 -10 -9 17
-10 17 -5 -7 6 -34 -4 -66 -16 -47 -4 7 -5 -7 -2 -32 3 -24 3 -41 0 -38 -4 3
-8 29 -10 57 -2 29 -7 52 -12 52 -10 0 -12 -40 -3 -56 4 -5 9 -35 12 -65 4
-45 3 -48 -4 -19 -8 30 -8 28 -5 -20 3 -40 1 -48 -5 -30 -7 20 -8 17 -5 -17 2
-33 0 -40 -11 -36 -8 3 -14 0 -14 -7 0 -6 4 -9 9 -5 5 3 13 0 17 -6 4 -7 3 -9
-3 -6 -6 4 -9 -10 -7 -36 1 -23 0 -32 -3 -19 -2 12 -9 22 -14 22 -5 0 -12 1
-16 3 -10 3 -12 -32 -2 -39 5 -3 9 3 9 12 0 30 11 8 14 -30 2 -20 1 -34 -3
-31 -4 2 -8 -2 -8 -10 0 -8 4 -12 9 -9 4 3 5 -1 2 -9 -3 -9 3 -17 16 -20 15
-4 19 -10 14 -19 -6 -10 -4 -10 9 1 9 7 17 19 16 25 0 7 -2 6 -6 -2 -2 -6 -9
-10 -14 -6 -5 3 -6 11 -2 17 11 17 12 36 3 42 -4 2 -7 -5 -6 -17 0 -12 -4 -23
-10 -25 -11 -4 -12 52 0 78 4 10 7 23 5 30 -3 29 1 40 14 33 9 -6 9 -4 1 7 -5
8 -9 20 -8 27 1 6 2 17 3 23 0 5 5 8 10 5 4 -3 6 6 3 21 -3 14 -1 24 4 21 5
-3 9 15 10 41 1 59 12 103 23 96 5 -3 7 5 4 17 -4 22 -4 22 11 5 15 -19 11
-52 -4 -42 -5 3 -12 1 -15 -5 -4 -6 -2 -9 3 -8 6 2 10 -1 10 -7 0 -5 -3 -9 -7
-8 -4 1 -8 -4 -8 -12 0 -8 4 -12 9 -9 5 3 7 -6 4 -20 -3 -16 2 -30 12 -38 15
-11 15 -11 6 2 -8 12 -11 63 -5 78 1 1 1 4 0 8 0 3 7 17 16 31 9 14 12 22 6
19 -10 -7 -16 6 -12 27 1 5 -3 6 -9 2 -5 -3 -10 1 -10 9 0 9 6 15 13 14 7 -2
12 8 13 22 1 44 4 51 14 45 8 -5 7 -12 -2 -23 -7 -10 -8 -14 -4 -10 5 4 16 2
24 -5 13 -10 14 -9 7 3 -12 20 -14 59 -3 66 4 3 8 11 8 17 0 7 -4 6 -10 -3
-13 -20 -13 1 0 35 5 14 15 23 20 20 8 -5 8 -11 0 -20 -8 -9 -8 -15 0 -20 7
-4 7 -12 0 -26 -15 -27 -5 -24 14 6 9 14 12 24 7 23 -5 -2 -9 2 -10 7 -1 6 3
10 8 10 5 0 13 4 18 8 4 5 3 7 -4 5 -6 -1 -11 2 -11 7 0 6 3 9 7 8 4 -1 7 9 7
22 0 13 -4 21 -8 19 -4 -3 -8 2 -8 10 0 10 7 13 22 11 16 -4 19 -2 10 7 -21
21 -13 32 10 12 16 -13 19 -14 10 -2 -9 11 -10 18 -2 23 6 4 8 16 4 27 -4 14
-2 18 5 14 7 -5 8 -1 4 11 -6 16 -5 16 10 4 13 -10 15 -17 6 -27 -6 -8 -8 -14
-4 -14 4 0 1 -8 -6 -17 -13 -16 -12 -17 4 -4 9 8 15 16 12 19 -3 3 0 11 6 19
6 7 8 13 3 13 -5 0 -2 5 6 11 13 8 12 9 -4 7 -10 -2 -21 2 -23 8 -2 7 7 11 25
9 21 -2 28 2 29 16 1 10 -2 21 -8 24 -5 4 -9 16 -8 28 0 21 0 21 9 2 4 -12 16
-27 26 -35 17 -14 18 -13 7 1 -7 9 -9 20 -5 24 4 5 1 5 -5 1 -8 -4 -13 -1 -13
9 0 9 4 14 9 11 5 -3 8 0 7 7 0 6 4 12 9 12 6 0 9 -8 9 -18 -1 -13 2 -15 12
-6 8 6 11 16 7 23 -12 18 -12 38 -2 58 7 13 6 18 -3 16 -7 -2 -14 7 -16 20 -2
14 -8 20 -15 16 -9 -5 -9 -4 0 6 6 7 9 20 6 29 -4 14 -3 14 6 1 6 -8 11 -25
11 -37z m-552 -7 c-7 -8 -15 -12 -17 -11 -5 6 10 25 20 25 5 0 4 -6 -3 -14z
m503 -19 c-10 -9 -11 -8 -5 6 3 10 9 15 12 12 3 -3 0 -11 -7 -18z m24 -7 c-5
-15 -3 -18 8 -14 11 4 15 -1 13 -19 0 -14 -4 -23 -8 -21 -4 2 -14 -6 -23 -18
-8 -13 -19 -22 -23 -20 -13 5 -14 -29 -1 -44 13 -16 7 -27 -16 -30 -9 -1 -18
10 -24 29 -7 26 -4 36 12 55 12 12 22 32 24 44 2 12 6 24 10 27 3 3 3 -4 0
-16 -3 -13 -1 -23 4 -23 5 0 10 6 10 13 1 6 2 17 4 22 1 6 3 16 3 23 1 6 5 12
8 12 3 0 3 -9 -1 -20z m1676 -10 c19 0 28 -4 24 -11 -8 -12 -65 -2 -80 14 -7
7 -4 8 8 3 10 -3 32 -6 48 -6z m-146 -20 c4 -6 -8 -10 -30 -10 -22 0 -34 4
-30 10 3 6 17 10 30 10 13 0 27 -4 30 -10z m-2178 -172 c-3 -8 -6 -5 -6 6 -1
11 2 17 5 13 3 -3 4 -12 1 -19z m545 -50 c-7 -7 -12 -8 -12 -2 0 14 12 26 19
19 2 -3 -1 -11 -7 -17z m-844 -76 c2 -7 -3 -12 -12 -12 -9 0 -16 7 -16 16 0
17 22 14 28 -4z m801 -18 c-15 -18 -23 -18 -15 1 3 8 1 15 -4 15 -6 0 -10 5
-10 10 0 7 7 7 21 0 16 -9 18 -14 8 -26z m-52 -99 c0 -8 -4 -12 -9 -9 -5 3 -6
10 -3 15 9 13 12 11 12 -6z m3186 -322 c-5 -12 -3 -14 8 -8 11 7 12 6 3 -6
-12 -16 -12 -78 0 -98 5 -7 10 -26 11 -41 2 -21 -2 -27 -14 -25 -18 2 -22 24
-8 43 6 7 5 17 -2 25 -6 8 -8 17 -4 20 3 4 1 12 -4 19 -11 14 -10 64 0 75 4 3
-1 12 -11 20 -15 13 -15 13 5 3 15 -7 20 -16 16 -27z m27 -208 c-6 -7 -6 -15
0 -21 6 -6 2 -10 -12 -11 -18 -2 -20 0 -8 7 13 9 13 10 0 11 -12 0 -12 2 -1 6
11 5 11 7 0 14 -10 6 -7 8 8 6 15 -1 19 -5 13 -12z m-2921 -399 c9 -11 9 -16
-1 -22 -7 -4 -10 -4 -6 1 4 4 3 14 -3 22 -6 7 -9 13 -6 13 2 0 10 -6 16 -14z
m17 -81 c0 -13 -3 -22 -7 -20 -4 3 -6 13 -4 23 1 9 -2 24 -8 32 -9 12 -9 13 3
2 8 -7 15 -23 16 -37z m1891 16 c1 -11 -3 -24 -10 -29 -9 -8 -15 -4 -24 15
-10 21 -10 24 2 19 8 -3 14 -2 14 2 -1 4 -1 11 0 16 2 14 15 -2 18 -23z m46
-15 c-4 -6 -10 0 -14 14 l-7 25 -1 -25 c-1 -19 -3 -22 -11 -10 -6 9 -5 19 3
28 9 12 13 11 24 -4 7 -9 9 -22 6 -28z m68 -63 c13 -16 12 -17 -3 -4 -17 13
-22 21 -14 21 2 0 10 -8 17 -17z m-31 -48 c-5 -6 -6 -16 -2 -20 4 -5 1 -5 -6
-1 -9 6 -10 12 -3 20 7 9 7 17 -2 26 -10 12 -9 12 6 1 12 -10 14 -17 7 -26z
m-1628 -413 c-6 -2 -9 -9 -5 -15 5 -9 3 -9 -8 0 -8 6 -30 13 -49 16 -22 2 -15
4 20 4 30 0 49 -2 42 -5z m358 -97 c11 -13 10 -14 -4 -9 -9 3 -16 10 -16 15 0
13 6 11 20 -6z m48 -30 c-3 -3 -9 2 -12 12 -6 14 -5 15 5 6 7 -7 10 -15 7 -18z
m47 5 c-3 -4 1 -10 7 -13 7 -3 4 -5 -8 -4 -15 1 -20 6 -16 19 2 10 8 15 13 12
5 -3 7 -9 4 -14z m61 -22 c3 -4 -1 -5 -10 -4 -8 1 -18 5 -22 8 -3 4 1 5 10 4
8 -1 18 -5 22 -8z m38 4 c3 -5 -1 -9 -9 -9 -8 0 -12 4 -9 9 3 4 7 8 9 8 2 0 6
-4 9 -8z m73 -9 c0 -6 -4 -10 -9 -7 -5 3 -15 1 -23 -6 -11 -9 -13 -7 -10 7 2
10 4 19 4 20 4 8 38 -4 38 -14z m-316 -46 c-10 -9 -11 -8 -5 6 3 10 9 15 12
12 3 -3 0 -11 -7 -18z m336 -24 c-4 -3 0 -14 8 -23 13 -14 13 -17 1 -17 -8 0
-14 4 -13 8 1 4 -2 7 -8 7 -5 0 -9 -4 -7 -10 1 -5 -2 -6 -8 -3 -8 5 -6 13 6
26 9 10 19 19 22 19 3 0 2 -3 -1 -7z m70 -38 c0 -8 -4 -12 -9 -9 -5 3 -6 10
-3 15 9 13 12 11 12 -6z m-163 -700 c-4 -8 -10 -12 -15 -9 -11 6 -2 24 11 24
5 0 7 -7 4 -15z"/>
<path d="M3199 4058 c0 -7 -2 -21 -4 -31 -3 -14 0 -16 10 -7 7 6 11 20 8 30
-6 23 -13 26 -14 8z"/>
<path d="M3132 3799 c2 -7 10 -15 17 -17 8 -3 12 1 9 9 -2 7 -10 15 -17 17 -8
3 -12 -1 -9 -9z"/>
<path d="M3055 4110 c-3 -5 -1 -18 5 -27 9 -15 11 -15 7 -2 -3 9 0 22 6 28 8
8 8 11 0 11 -7 0 -15 -4 -18 -10z"/>
<path d="M3001 4084 c6 -7 16 -11 21 -8 11 7 3 17 -18 20 -12 2 -13 -1 -3 -12z"/>
<path d="M3588 3918 c11 -18 20 -37 20 -41 0 -5 3 -12 7 -15 4 -4 5 0 3 8 -2
10 4 14 17 13 11 -1 14 0 8 3 -7 3 -13 12 -13 20 0 7 -14 21 -31 30 l-32 16
21 -34z m32 -16 c0 -8 -1 -13 -3 -11 -1 2 -9 12 -16 22 -12 15 -12 17 3 11 9
-3 16 -13 16 -22z"/>
<path d="M3657 3879 c-4 -14 -10 -18 -19 -13 -8 4 -10 3 -5 -2 5 -5 12 -9 15
-9 4 0 12 -4 19 -8 8 -5 10 0 7 20 -7 36 -10 38 -17 12z"/>
<path d="M4065 3590 c-3 -5 -1 -10 4 -10 6 0 11 5 11 10 0 6 -2 10 -4 10 -3 0
-8 -4 -11 -10z"/>
<path d="M4210 3410 c0 -5 5 -10 11 -10 5 0 7 5 4 10 -3 6 -8 10 -11 10 -2 0
-4 -4 -4 -10z"/>
<path d="M1584 3436 c1 -14 4 -28 7 -31 3 -3 5 6 5 19 -1 14 -4 28 -7 31 -3 3
-5 -6 -5 -19z"/>
<path d="M1411 3336 c-18 -19 -19 -25 -8 -35 12 -9 17 -5 27 19 16 40 9 46
-19 16z"/>
<path d="M1383 3273 c4 -6 0 -16 -8 -23 -8 -7 -13 -16 -10 -20 3 -5 1 -11 -5
-15 -15 -9 -12 -22 5 -22 8 0 12 4 10 8 -3 4 -2 15 1 24 5 12 9 13 14 5 4 -7
8 -1 8 14 0 15 -5 29 -11 33 -5 3 -7 1 -4 -4z"/>
<path d="M1310 3157 c-13 -20 -15 -32 -11 -69 1 -6 7 -3 15 8 11 15 12 22 3
33 -9 11 -9 13 -1 8 14 -8 28 23 17 34 -5 5 -15 -2 -23 -14z"/>
<path d="M1284 3034 c1 -8 4 -15 7 -16 2 -2 3 -1 2 1 -2 2 2 9 7 16 7 8 5 12
-4 12 -8 0 -13 -6 -12 -13z"/>
<path d="M1331 2963 c1 -4 0 -10 -1 -13 -6 -16 -7 -41 -2 -35 4 4 7 10 7 13 0
4 4 12 8 19 4 6 3 15 -3 18 -6 4 -10 3 -9 -2z"/>
<path d="M1245 2911 c-3 -5 -1 -12 5 -16 5 -3 10 1 10 9 0 18 -6 21 -15 7z"/>
<path d="M1343 2895 c0 -8 4 -12 9 -9 5 3 6 10 3 15 -9 13 -12 11 -12 -6z"/>
<path d="M1266 2760 c5 -8 9 -18 9 -22 0 -3 3 -9 7 -13 3 -4 5 0 4 9 -1 9 -8
22 -16 29 -10 10 -11 9 -4 -3z"/>
<path d="M1257 2721 c12 -14 6 -44 -7 -36 -9 5 -8 -13 1 -30 5 -9 5 -18 0 -42
-1 -5 -6 -1 -11 7 -5 8 -10 10 -10 4 0 -6 7 -17 16 -24 8 -8 14 -9 13 -4 -1 5
0 11 1 14 7 19 7 41 -1 45 -5 4 -2 16 6 29 14 21 14 24 -2 37 -14 10 -16 10
-6 0z"/>
<path d="M1195 2700 c-3 -5 -1 -10 4 -10 6 0 11 5 11 10 0 6 -2 10 -4 10 -3 0
-8 -4 -11 -10z"/>
<path d="M1185 2640 c-3 -5 -1 -10 4 -10 6 0 11 5 11 10 0 6 -2 10 -4 10 -3 0
-8 -4 -11 -10z"/>
<path d="M1236 2580 c5 -8 9 -21 10 -28 2 -8 6 -17 10 -20 4 -4 4 0 2 8 -3 8
2 24 11 35 14 17 14 18 0 8 -12 -10 -18 -10 -29 0 -10 10 -11 9 -4 -3z"/>
<path d="M1164 2554 c1 -13 5 -27 10 -31 4 -4 7 -3 6 2 -1 6 -1 12 0 15 8 21
6 37 -4 37 -7 0 -12 -11 -12 -23z"/>
<path d="M1157 2492 c-14 -16 -15 -21 -4 -30 10 -8 16 -7 24 7 17 27 0 46 -20
23z"/>
<path d="M1221 2444 c-1 -6 5 -17 12 -23 10 -8 14 -7 14 4 0 8 -4 12 -8 9 -4
-2 -10 2 -12 8 -4 8 -6 9 -6 2z"/>
<path d="M1266 2418 c3 -5 10 -6 15 -3 13 9 11 12 -6 12 -8 0 -12 -4 -9 -9z"/>
<path d="M1220 2407 c0 -2 6 -10 14 -16 11 -9 16 -9 22 1 4 7 4 10 -1 6 -4 -4
-14 -3 -22 3 -7 6 -13 9 -13 6z"/>
<path d="M1273 2385 c0 -8 4 -12 9 -9 5 3 6 10 3 15 -9 13 -12 11 -12 -6z"/>
<path d="M1644 2139 c-3 -6 1 -18 10 -28 11 -12 12 -21 5 -28 -7 -7 -5 -14 5
-23 14 -11 15 -7 12 31 -3 32 -2 39 5 27 6 -10 9 -24 8 -30 -3 -25 1 -39 10
-34 5 3 5 22 1 42 -5 20 -5 33 0 28 5 -5 10 -20 13 -34 4 -21 4 -20 6 8 0 17
0 32 -2 32 -1 0 -17 4 -34 9 -21 6 -35 6 -39 0z"/>
<path d="M1730 2097 c0 -21 -35 -66 -46 -59 -14 8 -14 -1 -1 -16 10 -10 15
-21 12 -24 -3 -3 20 -5 52 -4 40 1 58 6 61 16 3 12 1 12 -6 2 -13 -18 -28 3
-37 51 -6 28 -4 37 6 38 8 0 5 4 -6 9 -31 13 -35 12 -35 -13z m40 -82 c5 -6
-2 -10 -19 -10 -24 -1 -27 3 -24 25 3 24 3 24 -6 3 -12 -26 -17 -28 -27 -11
-4 7 -3 8 4 4 7 -4 12 -1 12 7 0 8 7 20 15 27 8 7 15 22 16 34 1 11 6 1 11
-24 6 -25 14 -50 18 -55z"/>
<path d="M1738 2035 c2 -14 6 -25 8 -25 2 0 4 11 4 25 0 14 -4 25 -9 25 -4 0
-6 -11 -3 -25z"/>
<path d="M1776 2080 c6 -8 10 -22 9 -31 -2 -9 3 -16 11 -16 9 0 11 4 4 12 -6
7 -6 16 0 23 6 7 7 10 4 7 -4 -3 -14 1 -23 8 -14 10 -14 10 -5 -3z"/>
<path d="M1504 3417 c-34 -35 -40 -46 -34 -67 8 -24 8 -23 9 7 1 23 8 37 26
49 14 9 30 25 36 35 13 26 10 24 -37 -24z"/>
<path d="M4529 2578 c-5 -18 -6 -38 -1 -34 7 8 12 36 6 36 -2 0 -4 -1 -5 -2z"/>
<path d="M2725 4620 c3 -5 13 -10 21 -10 8 0 12 5 9 10 -3 6 -13 10 -21 10 -8
0 -12 -4 -9 -10z"/>
<path d="M3786 3798 c3 -5 10 -6 15 -3 13 9 11 12 -6 12 -8 0 -12 -4 -9 -9z"/>
<path d="M1130 3745 c0 -2 6 -8 13 -14 10 -8 14 -7 14 2 0 8 -6 14 -14 14 -7
0 -13 -1 -13 -2z"/>
<path d="M3715 3495 c17 -14 39 -25 50 -25 17 1 16 4 -10 25 -16 14 -39 25
-50 25 -17 -1 -16 -4 10 -25z"/>
<path d="M4220 3326 c0 -2 8 -10 18 -17 15 -13 16 -12 3 4 -13 16 -21 21 -21
13z"/>
<path d="M860 3251 c0 -7 -4 -10 -8 -7 -5 3 -9 -2 -9 -10 0 -13 2 -13 16 0 8
9 12 19 8 22 -4 4 -7 2 -7 -5z"/>
<path d="M772 3045 c4 -4 3 -16 -3 -26 -5 -11 -7 -19 -5 -19 3 0 10 9 16 19 7
15 7 22 -2 27 -7 4 -10 4 -6 -1z"/>
<path d="M3010 2856 c0 -2 7 -6 15 -10 8 -3 15 -1 15 4 0 6 -7 10 -15 10 -8 0
-15 -2 -15 -4z"/>
<path d="M3010 2776 c0 -9 5 -16 10 -16 6 0 10 4 10 9 0 6 -4 13 -10 16 -5 3
-10 -1 -10 -9z"/>
<path d="M2759 2740 l-24 -20 48 7 c34 4 52 2 65 -9 9 -8 28 -20 42 -26 50
-25 70 -39 89 -64 11 -14 18 -28 15 -30 -7 -8 73 -38 101 -38 33 0 31 13 -6
41 -18 13 -48 38 -68 54 -125 104 -208 131 -262 85z"/>
<path d="M2790 2700 c0 -5 4 -10 9 -10 6 0 13 5 16 10 3 6 -1 10 -9 10 -9 0
-16 -4 -16 -10z"/>
<path d="M3148 2593 c6 -2 18 -2 25 0 6 3 1 5 -13 5 -14 0 -19 -2 -12 -5z"/>
<path d="M3157 2544 c-3 -4 -1 -16 4 -27 10 -18 9 -19 -25 -13 -29 6 -35 4
-30 -8 3 -9 9 -15 12 -14 28 3 55 -5 69 -22 10 -12 21 -16 27 -11 6 5 32 6 59
2 26 -5 47 -5 47 -2 0 16 -64 72 -88 77 -15 3 -35 9 -44 15 -21 11 -23 11 -31
3z"/>
<path d="M2960 2526 c0 -8 13 -16 30 -18 34 -5 40 6 11 22 -27 14 -41 13 -41
-4z"/>
<path d="M4504 2453 c11 -13 15 -23 11 -23 -5 0 -4 -5 3 -12 19 -19 14 -32 -5
-17 -16 12 -16 12 -6 -1 6 -8 12 -18 12 -22 1 -5 4 -8 8 -8 5 0 8 18 9 40 0
22 -2 37 -5 35 -2 -3 -14 3 -25 12 -21 18 -21 18 -2 -4z"/>
<path d="M4500 2294 c-11 -12 -11 -15 -1 -12 8 2 15 -8 17 -22 4 -24 3 -24
-11 -6 -8 11 -15 15 -15 9 0 -7 5 -15 10 -18 6 -4 7 -12 3 -18 -4 -7 0 -6 10
2 16 13 18 35 4 58 -4 6 -1 14 5 16 8 4 9 6 2 6 -6 1 -17 -6 -24 -15z"/>
<path d="M4507 2193 c5 -12 3 -14 -8 -8 -11 7 -12 6 -2 -6 9 -11 9 -19 2 -26
-8 -8 -8 -13 0 -17 6 -4 11 -6 12 -4 7 25 6 78 -1 78 -5 0 -6 -7 -3 -17z"/>
<path d="M2130 1510 c0 -5 -6 -7 -14 -4 -24 9 -27 -26 -4 -57 22 -29 29 -35
26 -21 0 4 1 14 5 22 3 8 8 22 10 30 4 10 6 7 6 -7 1 -12 5 -24 11 -28 5 -3 7
-12 4 -19 -3 -8 -1 -17 4 -20 5 -3 9 7 9 22 -1 15 2 41 6 57 6 22 5 26 -3 15
-9 -13 -10 -13 -10 0 0 13 -2 13 -9 1 -7 -11 -10 -10 -14 5 -4 16 -5 17 -6 2
0 -10 -5 -18 -11 -18 -5 0 -7 7 -4 15 4 8 3 15 0 15 -3 0 -6 -4 -6 -10z m9
-49 c0 -12 -2 -11 -9 4 -6 13 -9 15 -9 5 -1 -13 -3 -13 -10 0 -6 8 -7 18 -4
23 7 12 33 -13 32 -32z m38 -3 c-3 -7 -5 -2 -5 12 0 14 2 19 5 13 2 -7 2 -19
0 -25z"/>
<path d="M2017 1496 c-3 -8 -2 -18 3 -21 13 -8 20 9 11 24 -6 10 -10 9 -14 -3z"/>
<path d="M2040 1501 c0 -6 4 -12 8 -15 5 -3 9 1 9 9 0 8 -4 15 -9 15 -4 0 -8
-4 -8 -9z"/>
<path d="M2673 1421 c0 -11 5 -18 9 -15 4 3 5 11 1 19 -7 21 -12 19 -10 -4z"/>
<path d="M2250 1400 c-7 -23 -7 -41 0 -45 13 -8 18 8 9 30 -4 11 -8 18 -9 15z"/>
<path d="M2270 1388 c0 -23 26 -43 33 -25 3 8 1 20 -5 28 -8 11 -8 9 -4 -6 6
-20 6 -20 -9 -1 -12 16 -15 17 -15 4z"/>
<path d="M2337 1358 c9 -10 12 -18 8 -18 -4 0 0 -9 10 -20 l18 -20 24 22 c27
25 23 33 -20 33 -18 1 -31 6 -30 11 1 6 -5 11 -13 11 -11 0 -11 -4 3 -19z m73
-14 c0 -8 -19 -13 -24 -6 -3 5 1 9 9 9 8 0 15 -2 15 -3z"/>
<path d="M2470 1319 c0 -15 18 -19 23 -6 3 8 -1 14 -9 14 -8 0 -14 -4 -14 -8z"/>
<path d="M2516 1318 c3 -5 10 -6 15 -3 13 9 11 12 -6 12 -8 0 -12 -4 -9 -9z"/>
<path d="M2560 1304 c0 -10 3 -14 7 -11 3 4 12 2 19 -4 8 -7 14 -7 19 1 3 5 4
11 1 11 -3 1 -9 2 -13 3 -5 1 -14 5 -20 9 -9 5 -13 2 -13 -9z"/>
<path d="M3885 810 c-3 -6 1 -7 9 -4 18 7 21 14 7 14 -6 0 -13 -4 -16 -10z"/>
<path d="M2715 621 c-3 -5 -2 -12 3 -15 5 -3 9 1 9 9 0 17 -3 19 -12 6z"/>
<path d="M2616 611 c-3 -5 1 -14 9 -21 14 -11 14 -15 -1 -31 -9 -10 -20 -16
-25 -14 -4 3 -11 0 -15 -6 -4 -7 -3 -9 3 -6 13 8 36 -17 26 -27 -4 -3 -8 -14
-9 -22 -1 -9 0 -13 3 -10 4 3 16 -2 27 -11 15 -14 18 -14 8 -2 -6 9 -8 19 -4
23 4 4 2 6 -4 4 -7 -1 -12 2 -12 7 0 6 5 9 12 7 6 -2 3 5 -6 14 -17 17 -16 20
10 48 15 16 22 26 16 23 -13 -8 -37 16 -27 26 3 4 4 7 0 7 -3 0 -8 -4 -11 -9z"/>
<path d="M2994 606 c1 -8 5 -18 8 -22 4 -3 5 1 4 10 -1 8 -5 18 -8 22 -4 3 -5
-1 -4 -10z"/>
<path d="M3066 608 c3 -5 10 -6 15 -3 13 9 11 12 -6 12 -8 0 -12 -4 -9 -9z"/>
<path d="M3023 595 c0 -8 4 -12 9 -9 5 3 6 10 3 15 -9 13 -12 11 -12 -6z"/>
<path d="M2695 591 c-3 -5 -2 -12 3 -15 5 -3 9 1 9 9 0 17 -3 19 -12 6z"/>
<path d="M2916 588 c3 -5 10 -6 15 -3 13 9 11 12 -6 12 -8 0 -12 -4 -9 -9z"/>
<path d="M2722 581 c0 -3 -1 -8 -2 -11 -6 -13 -6 -78 0 -75 4 2 6 17 5 32 -1
15 4 35 12 44 11 13 11 16 -1 16 -8 0 -15 -3 -14 -6z"/>
<path d="M2646 551 c-14 -16 -15 -20 -2 -30 8 -7 13 -21 11 -31 -2 -10 4 -25
13 -32 15 -11 15 -11 6 2 -6 8 -10 23 -9 32 2 9 -3 22 -11 29 -13 10 -12 14 2
30 10 11 15 19 12 19 -3 0 -12 -8 -22 -19z"/>
<path d="M2749 568 c-5 -19 -6 -37 -1 -35 4 1 9 -2 10 -8 2 -5 8 -16 14 -23
21 -24 42 12 28 48 -1 3 -2 8 -2 11 1 3 -5 6 -13 6 -8 0 -13 -3 -12 -6 1 -3
-2 -7 -8 -8 -5 -2 -9 2 -7 7 2 8 -6 15 -9 8z m47 -43 c-1 -9 -6 -15 -12 -15
-9 0 -13 19 -6 33 6 12 20 -2 18 -18z"/>
<path d="M2740 511 c0 -6 4 -13 10 -16 6 -3 7 1 4 9 -7 18 -14 21 -14 7z"/>
<path d="M1954 498 c-4 -7 -4 -10 1 -6 4 4 15 2 24 -5 14 -11 14 -10 2 6 -16
20 -18 21 -27 5z"/>
<path d="M2550 499 c0 -5 -6 -7 -12 -3 -10 6 -10 5 -1 -8 7 -8 11 -18 8 -21
-3 -4 -2 -5 2 -2 8 7 15 45 8 45 -3 0 -5 -5 -5 -11z"/>
<path d="M2435 390 c-3 -6 1 -7 9 -4 18 7 21 14 7 14 -6 0 -13 -4 -16 -10z"/>
<path d="M2615 391 c-3 -5 0 -13 6 -17 7 -4 9 -3 5 4 -3 6 3 12 16 15 23 4 23
4 1 6 -12 0 -24 -3 -28 -8z"/>
</g>
</svg>
